<svg width="98" height="105" viewBox="0 0 98 105" fill="none" xmlns="http://www.w3.org/2000/svg">
<path fill-rule="evenodd" clip-rule="evenodd" d="M64.2592 99.6012H64.247C63.7275 99.6012 63.272 99.8187 62.8927 100.131C62.8196 100.192 62.7281 100.228 62.6626 100.297C62.2985 100.684 62.0883 101.212 62.0426 101.789C62.038 101.853 62.0076 101.91 62.0076 101.976C62.0076 102.269 62.0731 102.543 62.166 102.8C62.1965 102.884 62.2346 102.957 62.2726 103.036C62.3549 103.205 62.4539 103.361 62.5728 103.504C62.6306 103.575 62.6824 103.648 62.748 103.71C62.9277 103.883 63.1258 104.034 63.3512 104.139H63.3528C63.6315 104.269 63.9362 104.348 64.2592 104.348C65.2601 104.348 66.0782 103.646 66.3692 102.688C66.4469 102.469 66.5002 102.24 66.5017 101.988C66.5017 101.984 66.5048 101.98 66.5048 101.976C66.5048 100.663 65.4993 99.6012 64.2592 99.6012ZM95.6734 71.2967C95.4555 71.2 95.2133 71.163 94.965 71.1453C94.9208 71.1437 94.8858 71.1179 94.8401 71.1179H94.8279C93.5878 71.1179 92.5884 72.1807 92.5884 73.4931C92.5884 73.812 92.6524 74.1131 92.7606 74.3868C92.8368 74.5833 92.9617 74.7411 93.079 74.907C93.1277 74.9698 93.1552 75.0471 93.2069 75.105C93.5802 75.5237 94.0951 75.7814 94.671 75.8297C94.674 75.8297 94.6771 75.8313 94.6801 75.8329V75.8313C94.735 75.8361 94.7837 75.8651 94.8401 75.8651C96.0802 75.8651 97.0856 74.8023 97.0856 73.4931C97.0856 72.4947 96.4991 71.6477 95.6734 71.2967ZM18.3879 29.3427H18.3757C17.1356 29.3427 16.1363 30.4055 16.1363 31.7162C16.1363 33.0254 17.1478 34.0898 18.3879 34.0898C19.6265 34.0898 20.6334 33.0254 20.6334 31.7162C20.6334 30.4055 19.6265 29.3427 18.3879 29.3427ZM18.3879 85.3595H18.3757C17.1356 85.3595 16.1363 86.4211 16.1363 87.7339C16.1363 89.0435 17.1478 90.1067 18.3879 90.1067C19.6265 90.1067 20.6334 89.0435 20.6334 87.7339C20.6334 86.4211 19.6265 85.3595 18.3879 85.3595ZM33.6784 48.3317C34.9185 48.3317 35.9239 47.2672 35.9239 45.9581C35.9239 44.6457 34.9185 43.5845 33.6784 43.5845H33.6677C32.4261 43.5845 31.4268 44.6457 31.4268 45.9581C31.4268 47.2672 32.4383 48.3317 33.6784 48.3317ZM18.3879 15.1012H18.3757C17.1356 15.1012 16.1363 16.164 16.1363 17.4748C16.1363 18.7856 17.1478 19.8484 18.3879 19.8484C19.6265 19.8484 20.6334 18.7856 20.6334 17.4748C20.6334 16.164 19.6265 15.1012 18.3879 15.1012ZM18.3879 56.8766H18.3757C17.1356 56.8766 16.1363 57.9394 16.1363 59.2502C16.1363 60.561 17.1478 61.6238 18.3879 61.6238C19.6265 61.6238 20.6334 60.561 20.6334 59.2502C20.6334 57.9394 19.6265 56.8766 18.3879 56.8766ZM18.3879 71.1179H18.3757C17.1356 71.1179 16.1363 72.1807 16.1363 73.4931C16.1363 74.8023 17.1478 75.8651 18.3879 75.8651C19.6265 75.8651 20.6334 74.8023 20.6334 73.4931C20.6334 72.1807 19.6265 71.1179 18.3879 71.1179ZM33.6784 19.8484C34.9185 19.8484 35.9239 18.7856 35.9239 17.4748C35.9239 16.164 34.9185 15.1012 33.6784 15.1012H33.6677C32.4261 15.1012 31.4268 16.164 31.4268 17.4748C31.4268 18.7856 32.4383 19.8484 33.6784 19.8484ZM33.6784 34.0898C34.9185 34.0898 35.9239 33.0254 35.9239 31.7162C35.9239 30.4055 34.9185 29.3427 33.6784 29.3427H33.6677C32.4261 29.3427 31.4268 30.4055 31.4268 31.7162C31.4268 33.0254 32.4383 34.0898 33.6784 34.0898ZM33.6784 5.60681C34.9185 5.60681 35.9239 4.544 35.9239 3.23321C35.9239 1.92242 34.9185 0.859619 33.6784 0.859619H33.6677C32.4261 0.859619 31.4268 1.92242 31.4268 3.23321C31.4268 4.544 32.4383 5.60681 33.6784 5.60681ZM18.3879 43.5845H18.3757C17.1356 43.5845 16.1363 44.6457 16.1363 45.9581C16.1363 47.2672 17.1478 48.3317 18.3879 48.3317C19.6265 48.3317 20.6334 47.2672 20.6334 45.9581C20.6334 44.6457 19.6265 43.5845 18.3879 43.5845ZM3.09899 56.8765H3.08528C1.8452 56.8765 0.845825 57.9393 0.845825 59.2501C0.845825 60.5609 1.85891 61.6237 3.09899 61.6237C4.33907 61.6237 5.34301 60.5609 5.34301 59.2501C5.34301 57.9393 4.33907 56.8765 3.09899 56.8765ZM3.09899 43.5844H3.08528C1.8452 43.5844 0.845825 44.6456 0.845825 45.958C0.845825 47.2672 1.85891 48.3316 3.09899 48.3316C4.33907 48.3316 5.34301 47.2672 5.34301 45.958C5.34301 44.6456 4.33907 43.5844 3.09899 43.5844ZM3.09823 71.1179H3.08451C2.80258 71.1179 2.53894 71.1855 2.29358 71.2886C2.16862 71.3385 2.06499 71.419 1.95222 71.4915C1.85773 71.5543 1.76172 71.6106 1.67638 71.6896C1.52856 71.8168 1.41274 71.9649 1.29996 72.1292C1.27863 72.163 1.25729 72.1936 1.23596 72.2306C1.11404 72.4303 1.02413 72.6396 0.96317 72.8747L0.961646 72.8764V72.878C0.909831 73.0776 0.845825 73.2741 0.845825 73.4931C0.845825 74.4271 1.37159 75.2177 2.1168 75.6042V75.6058H2.11833C2.4155 75.7588 2.73553 75.8603 3.08604 75.8619C3.09061 75.8619 3.09366 75.8651 3.09823 75.8651C4.33873 75.8651 5.34301 74.8023 5.34301 73.4931C5.34301 73.1646 5.28053 72.8522 5.16624 72.5688C4.82639 71.7169 4.02784 71.1179 3.09823 71.1179ZM79.5496 43.5845H79.5375C78.2974 43.5845 77.298 44.6457 77.298 45.9581C77.298 47.2672 78.3096 48.3317 79.5496 48.3317C80.7897 48.3317 81.7952 47.2672 81.7952 45.9581C81.7952 44.6457 80.7897 43.5845 79.5496 43.5845ZM3.09823 29.3426H3.08451C2.82849 29.3426 2.59228 29.4022 2.36978 29.4956C2.16709 29.5697 1.99031 29.6808 1.81963 29.8096C1.81811 29.8096 1.81811 29.8096 1.81658 29.8112C1.24205 30.2412 0.845825 30.9143 0.845825 31.7162C0.845825 31.8177 0.888496 31.903 0.900688 32.0029H0.899164C0.899164 32.0061 0.900688 32.0077 0.902212 32.0093C0.972313 32.5874 1.21767 33.0979 1.60933 33.4683C1.66266 33.5198 1.72972 33.5488 1.78611 33.5939C1.94002 33.713 2.08785 33.837 2.2692 33.9127C2.5237 34.0238 2.80106 34.0898 3.09823 34.0898C4.02784 34.0898 4.82639 33.4924 5.16624 32.6389C5.28053 32.3555 5.34301 32.0431 5.34301 31.7162C5.34301 31.3893 5.28053 31.0769 5.16624 30.7935C4.82639 29.9401 4.02784 29.3426 3.09823 29.3426ZM79.5496 56.8766H79.5375C78.2974 56.8766 77.298 57.9394 77.298 59.2502C77.298 60.561 78.3096 61.6238 79.5496 61.6238C80.7897 61.6238 81.7952 60.561 81.7952 59.2502C81.7952 57.9394 80.7897 56.8766 79.5496 56.8766ZM79.5496 29.3427H79.5375C78.2974 29.3427 77.298 30.4055 77.298 31.7162C77.298 33.0254 78.3096 34.0898 79.5496 34.0898C80.7897 34.0898 81.7952 33.0254 81.7952 31.7162C81.7952 30.4055 80.7897 29.3427 79.5496 29.3427ZM79.5496 85.3595H79.5375C78.2974 85.3595 77.298 86.4211 77.298 87.7339C77.298 89.0435 78.3096 90.1067 79.5496 90.1067C80.7897 90.1067 81.7952 89.0435 81.7952 87.7339C81.7952 86.4211 80.7897 85.3595 79.5496 85.3595ZM79.5496 71.1179H79.5375C78.2974 71.1179 77.298 72.1807 77.298 73.4931C77.298 74.8023 78.3096 75.8651 79.5496 75.8651C80.7897 75.8651 81.7952 74.8023 81.7952 73.4931C81.7952 72.1807 80.7897 71.1179 79.5496 71.1179ZM64.26 5.60681C65.4996 5.60681 66.5048 4.544 66.5048 3.23321C66.5048 3.23321 66.5032 3.2316 66.5032 3.22999C66.5032 2.84513 66.3966 2.49569 66.2413 2.17363C66.2261 2.14303 66.2063 2.12049 66.1895 2.0915C66.0266 1.78716 65.8042 1.53434 65.5347 1.33144H65.5331C65.1661 1.05608 64.7427 0.859619 64.26 0.859619H64.2478C63.0081 0.859619 62.0076 1.92242 62.0076 3.23321C62.0076 4.544 63.0203 5.60681 64.26 5.60681ZM79.5496 15.1012H79.5375C78.2974 15.1012 77.298 16.164 77.298 17.4748C77.298 18.7856 78.3096 19.8484 79.5496 19.8484C80.7897 19.8484 81.7952 18.7856 81.7952 17.4748C81.7952 16.164 80.7897 15.1012 79.5496 15.1012ZM64.2592 29.3427H64.247C63.0069 29.3427 62.0076 30.4055 62.0076 31.7162C62.0076 33.0254 63.0191 34.0898 64.2592 34.0898C65.4993 34.0898 66.5048 33.0254 66.5048 31.7162C66.5048 30.4055 65.4993 29.3427 64.2592 29.3427ZM64.2592 71.1179H64.247C63.0069 71.1179 62.0076 72.1807 62.0076 73.4931C62.0076 74.8023 63.0191 75.8651 64.2592 75.8651C65.4993 75.8651 66.5048 74.8023 66.5048 73.4931C66.5048 72.1807 65.4993 71.1179 64.2592 71.1179ZM64.2592 56.8766H64.247C63.0069 56.8766 62.0076 57.9394 62.0076 59.2502C62.0076 60.561 63.0191 61.6238 64.2592 61.6238C65.4993 61.6238 66.5048 60.561 66.5048 59.2502C66.5048 57.9394 65.4993 56.8766 64.2592 56.8766ZM64.2592 43.5845H64.247C63.0069 43.5845 62.0076 44.6457 62.0076 45.9581C62.0076 47.2672 63.0191 48.3317 64.2592 48.3317C65.4993 48.3317 66.5048 47.2672 66.5048 45.9581C66.5048 44.6457 65.4993 43.5845 64.2592 43.5845ZM64.2592 85.3595H64.247C63.0069 85.3595 62.0076 86.4211 62.0076 87.7339C62.0076 89.0435 63.0191 90.1067 64.2592 90.1067C65.4993 90.1067 66.5048 89.0435 66.5048 87.7339C66.5048 86.4211 65.4993 85.3595 64.2592 85.3595ZM33.6784 61.6238C34.9185 61.6238 35.9239 60.561 35.9239 59.2502C35.9239 57.9394 34.9185 56.8766 33.6784 56.8766H33.6677C32.4261 56.8766 31.4268 57.9394 31.4268 59.2502C31.4268 60.561 32.4383 61.6238 33.6784 61.6238ZM35.2658 100.297C35.1988 100.226 35.1074 100.191 35.0327 100.131C34.6534 99.8187 34.1979 99.6012 33.6784 99.6012H33.6662C32.4261 99.6012 31.4268 100.663 31.4268 101.976C31.4268 102.62 31.6751 103.2 32.0712 103.628C32.0727 103.63 32.0727 103.632 32.0742 103.632C32.4825 104.073 33.0492 104.348 33.6784 104.348C33.7972 104.348 33.8993 104.297 34.0136 104.278C34.0151 104.278 34.0166 104.276 34.0181 104.276C34.5483 104.189 35.0114 103.931 35.3481 103.524C35.4029 103.461 35.4349 103.383 35.4821 103.314C35.5842 103.161 35.6924 103.016 35.7594 102.841C35.86 102.578 35.9194 102.291 35.9209 101.985C35.9209 101.982 35.9239 101.98 35.9239 101.976C35.9239 101.373 35.6939 100.838 35.345 100.42C35.313 100.381 35.2993 100.331 35.2658 100.297ZM93.9646 33.9031C94.2343 34.0238 94.53 34.0898 94.8408 34.0898C95.1685 34.0898 95.4748 34.0077 95.7552 33.8741C95.7644 33.8693 95.7704 33.8613 95.7796 33.8564C96.0539 33.7212 96.2901 33.5312 96.4898 33.2962C96.8525 32.8761 97.0856 32.3288 97.0856 31.7171C97.0856 30.4067 96.0798 29.3427 94.8408 29.3427H94.8286C93.5882 29.3427 92.5884 30.4067 92.5884 31.7171C92.5884 32.699 93.1569 33.5425 93.9646 33.9031ZM94.8408 48.3317C96.0798 48.3317 97.0856 47.2672 97.0856 45.9581C97.0856 44.6457 96.0798 43.5845 94.8408 43.5845H94.8286C93.5882 43.5845 92.5884 44.6457 92.5884 45.9581C92.5884 47.2672 93.5988 48.3317 94.8408 48.3317ZM94.8408 61.6238C96.0798 61.6238 97.0856 60.561 97.0856 59.2502C97.0856 57.9394 96.0798 56.8766 94.8408 56.8766H94.8286C93.5882 56.8766 92.5884 57.9394 92.5884 59.2502C92.5884 60.561 93.5988 61.6238 94.8408 61.6238ZM48.9688 29.3427H48.9582C47.7181 29.3427 46.7172 30.4055 46.7172 31.7162C46.7172 33.0254 47.7288 34.0898 48.9688 34.0898C50.2089 34.0898 51.2144 33.0254 51.2144 31.7162C51.2144 30.4055 50.2089 29.3427 48.9688 29.3427ZM48.9688 15.1012H48.9582C47.7181 15.1012 46.7172 16.164 46.7172 17.4748C46.7172 18.7856 47.7288 19.8484 48.9688 19.8484C50.2089 19.8484 51.2144 18.7856 51.2144 17.4748C51.2144 16.164 50.2089 15.1012 48.9688 15.1012ZM48.9688 0.859619H48.9582C47.7181 0.859619 46.7172 1.92242 46.7172 3.23321C46.7172 4.544 47.7288 5.60681 48.9688 5.60681C50.2089 5.60681 51.2144 4.544 51.2144 3.23321C51.2144 1.92242 50.2089 0.859619 48.9688 0.859619ZM33.6784 90.1067C34.9185 90.1067 35.9239 89.0435 35.9239 87.7339C35.9239 86.4211 34.9185 85.3595 33.6784 85.3595H33.6677C32.4261 85.3595 31.4268 86.4211 31.4268 87.7339C31.4268 89.0435 32.4383 90.1067 33.6784 90.1067ZM33.6784 75.8651C34.9185 75.8651 35.9239 74.8023 35.9239 73.4931C35.9239 72.1807 34.9185 71.1179 33.6784 71.1179H33.6677C32.4261 71.1179 31.4268 72.1807 31.4268 73.4931C31.4268 74.8023 32.4383 75.8651 33.6784 75.8651ZM48.9688 43.5845H48.9582C47.7181 43.5845 46.7172 44.6457 46.7172 45.9581C46.7172 47.2672 47.7288 48.3317 48.9688 48.3317C50.2089 48.3317 51.2144 47.2672 51.2144 45.9581C51.2144 44.6457 50.2089 43.5845 48.9688 43.5845ZM64.2592 15.1012H64.247C63.0069 15.1012 62.0076 16.164 62.0076 17.4748C62.0076 18.7856 63.0191 19.8484 64.2592 19.8484C65.4993 19.8484 66.5048 18.7856 66.5048 17.4748C66.5048 16.164 65.4993 15.1012 64.2592 15.1012ZM48.9688 85.3595H48.9582C47.7181 85.3595 46.7172 86.4211 46.7172 87.7339C46.7172 89.0435 47.7288 90.1067 48.9688 90.1067C50.2089 90.1067 51.2144 89.0435 51.2144 87.7339C51.2144 86.4211 50.2089 85.3595 48.9688 85.3595ZM48.9688 99.6012H48.9582C47.7181 99.6012 46.7172 100.664 46.7172 101.976C46.7172 103.287 47.7288 104.348 48.9688 104.348C50.2089 104.348 51.2144 103.287 51.2144 101.976C51.2144 100.664 50.2089 99.6012 48.9688 99.6012ZM48.9688 71.1179H48.9582C47.7181 71.1179 46.7172 72.1807 46.7172 73.4931C46.7172 74.8023 47.7288 75.8651 48.9688 75.8651C50.2089 75.8651 51.2144 74.8023 51.2144 73.4931C51.2144 72.1807 50.2089 71.1179 48.9688 71.1179ZM48.9688 56.8766H48.9582C47.7181 56.8766 46.7172 57.9394 46.7172 59.2502C46.7172 60.561 47.7288 61.6238 48.9688 61.6238C50.2089 61.6238 51.2144 60.561 51.2144 59.2502C51.2144 57.9394 50.2089 56.8766 48.9688 56.8766Z" fill="#130D3A"/>
</svg>
