<svg width="18" height="22" viewBox="0 0 18 22" fill="none" xmlns="http://www.w3.org/2000/svg">
<path d="M9.00001 0.524414C6.81276 0.526994 4.71584 1.39702 3.16923 2.94363C1.62261 4.49025 0.752589 6.58717 0.750009 8.77441C0.747389 10.5618 1.33124 12.3008 2.41201 13.7244C2.41201 13.7244 2.63701 14.0207 2.67376 14.0634L9.00001 21.5244L15.3293 14.0597C15.3623 14.0199 15.588 13.7244 15.588 13.7244L15.5888 13.7222C16.669 12.2991 17.2526 10.561 17.25 8.77441C17.2474 6.58717 16.3774 4.49025 14.8308 2.94363C13.2842 1.39702 11.1873 0.526994 9.00001 0.524414ZM9.00001 11.7744C8.40666 11.7744 7.82665 11.5985 7.3333 11.2688C6.83995 10.9392 6.45543 10.4706 6.22837 9.92246C6.00131 9.37429 5.9419 8.77109 6.05765 8.18914C6.17341 7.6072 6.45913 7.07265 6.87869 6.65309C7.29825 6.23354 7.83279 5.94781 8.41474 5.83206C8.99668 5.7163 9.59988 5.77571 10.1481 6.00278C10.6962 6.22984 11.1648 6.61436 11.4944 7.1077C11.8241 7.60105 12 8.18107 12 8.77441C11.999 9.56976 11.6826 10.3322 11.1202 10.8946C10.5578 11.457 9.79535 11.7734 9.00001 11.7744Z" fill="white"/>
</svg>
