<svg width="18" height="22" viewBox="0 0 18 22" fill="none" xmlns="http://www.w3.org/2000/svg">
<path d="M9.00001 0.460938C6.81276 0.463518 4.71584 1.33354 3.16923 2.88016C1.62261 4.42677 0.752589 6.52369 0.750009 8.71094C0.747389 10.4984 1.33124 12.2373 2.41201 13.6609C2.41201 13.6609 2.63701 13.9572 2.67376 13.9999L9.00001 21.4609L15.3293 13.9962C15.3623 13.9564 15.588 13.6609 15.588 13.6609L15.5888 13.6587C16.669 12.2356 17.2526 10.4975 17.25 8.71094C17.2474 6.52369 16.3774 4.42677 14.8308 2.88016C13.2842 1.33354 11.1873 0.463518 9.00001 0.460938ZM9.00001 11.7109C8.40666 11.7109 7.82665 11.535 7.3333 11.2053C6.83995 10.8757 6.45543 10.4072 6.22837 9.85899C6.00131 9.31081 5.9419 8.70761 6.05765 8.12567C6.17341 7.54372 6.45913 7.00917 6.87869 6.58962C7.29825 6.17006 7.83279 5.88434 8.41474 5.76858C8.99668 5.65283 9.59988 5.71224 10.1481 5.9393C10.6962 6.16636 11.1648 6.55088 11.4944 7.04423C11.8241 7.53757 12 8.11759 12 8.71094C11.999 9.50628 11.6826 10.2688 11.1202 10.8312C10.5578 11.3936 9.79535 11.7099 9.00001 11.7109Z" fill="url(#paint0_linear_145_2287)"/>
<defs>
<linearGradient id="paint0_linear_145_2287" x1="9.00001" y1="0.460937" x2="9.00001" y2="21.4609" gradientUnits="userSpaceOnUse">
<stop stop-color="#885521"/>
<stop offset="1" stop-color="#64462C"/>
</linearGradient>
</defs>
</svg>
