<svg width="24" height="25" viewBox="0 0 24 25" fill="none" xmlns="http://www.w3.org/2000/svg">
<path d="M20.0002 11.9599H22.0002C22.0002 6.82994 18.1272 2.96094 12.9902 2.96094V4.96094C17.0522 4.96094 20.0002 7.90394 20.0002 11.9599Z" fill="url(#paint0_linear_145_2278)"/>
<path d="M12.9998 8.96093C15.1028 8.96093 15.9998 9.85793 15.9998 11.9609H17.9998C17.9998 8.73593 16.2248 6.96093 12.9998 6.96093V8.96093ZM16.4218 14.4039C16.2296 14.2293 15.9771 14.1361 15.7176 14.1442C15.4581 14.1522 15.2118 14.2607 15.0308 14.4469L12.6378 16.9079C12.0618 16.7979 10.9038 16.4369 9.71179 15.2479C8.51979 14.0549 8.15879 12.8939 8.05179 12.3219L10.5108 9.92793C10.6972 9.74706 10.8059 9.50075 10.814 9.24114C10.822 8.98152 10.7287 8.72897 10.5538 8.53693L6.85879 4.47393C6.68384 4.28129 6.44067 4.16444 6.18095 4.14819C5.92122 4.13195 5.66539 4.21759 5.46779 4.38693L3.29779 6.24793C3.1249 6.42145 3.02171 6.65238 3.00779 6.89693C2.99279 7.14693 2.70679 13.0689 7.29879 17.6629C11.3048 21.6679 16.3228 21.9609 17.7048 21.9609C17.9068 21.9609 18.0308 21.9549 18.0638 21.9529C18.3083 21.9392 18.5391 21.8356 18.7118 21.6619L20.5718 19.4909C20.7413 19.2935 20.8271 19.0377 20.811 18.778C20.795 18.5183 20.6783 18.275 20.4858 18.0999L16.4218 14.4039Z" fill="url(#paint1_linear_145_2278)"/>
<defs>
<linearGradient id="paint0_linear_145_2278" x1="17.4952" y1="2.96094" x2="17.4952" y2="11.9599" gradientUnits="userSpaceOnUse">
<stop stop-color="#885521"/>
<stop offset="1" stop-color="#64462C"/>
</linearGradient>
<linearGradient id="paint1_linear_145_2278" x1="11.9062" y1="4.14624" x2="11.9062" y2="21.9609" gradientUnits="userSpaceOnUse">
<stop stop-color="#885521"/>
<stop offset="1" stop-color="#64462C"/>
</linearGradient>
</defs>
</svg>
