<svg width="24" height="25" viewBox="0 0 24 25" fill="none" xmlns="http://www.w3.org/2000/svg">
<path d="M20.0002 11.0234H22.0002C22.0002 5.89341 18.1272 2.02441 12.9902 2.02441V4.02441C17.0522 4.02441 20.0002 6.96741 20.0002 11.0234Z" fill="white"/>
<path d="M13.0003 8.02465C15.1033 8.02465 16.0003 8.92165 16.0003 11.0247H18.0003C18.0003 7.79965 16.2253 6.02465 13.0003 6.02465V8.02465ZM16.4223 13.4677C16.2301 13.293 15.9776 13.1999 15.7181 13.2079C15.4585 13.2159 15.2123 13.3245 15.0313 13.5107L12.6383 15.9717C12.0623 15.8617 10.9043 15.5007 9.71228 14.3117C8.52028 13.1187 8.15928 11.9577 8.05228 11.3857L10.5113 8.99165C10.6977 8.81078 10.8064 8.56447 10.8144 8.30486C10.8225 8.04524 10.7292 7.79269 10.5543 7.60065L6.85928 3.53765C6.68432 3.34501 6.44116 3.22816 6.18143 3.21191C5.92171 3.19567 5.66588 3.28131 5.46828 3.45065L3.29828 5.31165C3.12539 5.48517 3.0222 5.7161 3.00828 5.96065C2.99328 6.21065 2.70728 12.1327 7.29928 16.7267C11.3053 20.7317 16.3233 21.0247 17.7053 21.0247C17.9073 21.0247 18.0313 21.0187 18.0643 21.0167C18.3088 21.003 18.5396 20.8993 18.7123 20.7257L20.5723 18.5547C20.7417 18.3572 20.8276 18.1014 20.8115 17.8417C20.7954 17.582 20.6788 17.3387 20.4863 17.1637L16.4223 13.4677Z" fill="white"/>
</svg>
