<svg width="38" height="37" viewBox="0 0 38 37" fill="none" xmlns="http://www.w3.org/2000/svg">
<mask id="mask0_35_344" style="mask-type:alpha" maskUnits="userSpaceOnUse" x="0" y="0" width="38" height="37">
<rect x="0.5" width="37" height="37" fill="#FFFEFD"/>
</mask>
<g mask="url(#mask0_35_344)">
<path d="M9.50941 30.1515C8.30588 30.1515 7.28414 29.7307 6.44419 28.8889C5.60424 28.0472 5.18426 27.0252 5.18426 25.8229H2.57538V9.72445C2.57538 8.94565 2.84517 8.28646 3.38475 7.74688C3.92434 7.20729 4.5834 6.9375 5.36194 6.9375H26.3525V12.8078H30.4437L35.4244 19.4786V25.8229H32.6379C32.6379 27.0252 32.2166 28.0472 31.3741 28.8889C30.5318 29.7307 29.5091 30.1515 28.3058 30.1515C27.1025 30.1515 26.0808 29.7307 25.2406 28.8889C24.4006 28.0472 23.9806 27.0252 23.9806 25.8229H13.8411C13.8411 27.0285 13.42 28.0513 12.5777 28.8912C11.7354 29.7314 10.7127 30.1515 9.50941 30.1515ZM9.51288 27.839C10.0782 27.839 10.5554 27.6443 10.9447 27.2547C11.334 26.8655 11.5286 26.3882 11.5286 25.8229C11.5286 25.2576 11.334 24.7802 10.9447 24.3907C10.5554 24.0014 10.0782 23.8068 9.51288 23.8068C8.9476 23.8068 8.4702 24.0014 8.08067 24.3907C7.6914 24.7802 7.49676 25.2576 7.49676 25.8229C7.49676 26.3882 7.6914 26.8655 8.08067 27.2547C8.4702 27.6443 8.9476 27.839 9.51288 27.839ZM4.88788 23.5104H6.0025C6.33062 22.9392 6.80443 22.4604 7.42392 22.074C8.04367 21.6875 8.73999 21.4943 9.51288 21.4943C10.2657 21.4943 10.9569 21.6851 11.5864 22.0666C12.2159 22.4482 12.6947 22.9295 13.0229 23.5104H24.04V9.25H5.36194C5.24349 9.25 5.1348 9.29946 5.03588 9.39838C4.93721 9.49705 4.88788 9.60574 4.88788 9.72445V23.5104ZM28.3093 27.839C28.8745 27.839 29.3518 27.6443 29.7411 27.2547C30.1306 26.8655 30.3254 26.3882 30.3254 25.8229C30.3254 25.2576 30.1306 24.7802 29.7411 24.3907C29.3518 24.0014 28.8745 23.8068 28.3093 23.8068C27.744 23.8068 27.2666 24.0014 26.8771 24.3907C26.4878 24.7802 26.2931 25.2576 26.2931 25.8229C26.2931 26.3882 26.4878 26.8655 26.8771 27.2547C27.2666 27.6443 27.744 27.839 28.3093 27.839ZM26.3525 20.4271H33.2603L29.2578 15.1203H26.3525V20.4271Z" fill="#FFFEFD"/>
</g>
</svg>
