<svg width="38" height="37" viewBox="0 0 38 37" fill="none" xmlns="http://www.w3.org/2000/svg">
<mask id="mask0_35_352" style="mask-type:alpha" maskUnits="userSpaceOnUse" x="0" y="0" width="38" height="37">
<rect x="0.5" width="37" height="37" fill="white"/>
</mask>
<g mask="url(#mask0_35_352)">
<path d="M33.0263 28.2952L28.9498 24.204L30.5597 22.5941L34.6512 26.6707L33.0263 28.2952ZM27.7877 10.0769L26.1779 8.46706L30.2544 4.3905L31.8789 6.00039L27.7877 10.0769ZM10.2127 10.092L6.13619 6.00039L7.74608 4.3905L11.8373 8.46706L10.2127 10.092ZM4.95913 28.2952L3.34924 26.6707L7.4258 22.5941L9.05071 24.204L4.95913 28.2952ZM13.4622 26.7539L19.0002 23.4243L24.5533 26.8071L23.1034 20.5009L27.9747 16.2972L21.5617 15.7218L19.0002 9.76861L16.4534 15.6832L10.0408 16.2436L14.9117 20.5009L13.4622 26.7539ZM9.9549 31.604L12.3414 21.3519L4.35441 14.4383L14.8913 13.5337L19.0002 3.854L23.1242 13.5337L33.6607 14.4383L25.6737 21.3519L28.0606 31.604L19.0002 26.1577L9.9549 31.604Z" fill="white"/>
</g>
</svg>
