<svg width="38" height="37" viewBox="0 0 38 37" fill="none" xmlns="http://www.w3.org/2000/svg">
<g clip-path="url(#clip0_35_360)">
<mask id="mask0_35_360" style="mask-type:alpha" maskUnits="userSpaceOnUse" x="0" y="-1" width="38" height="38">
<rect x="0.498169" y="-0.00195312" width="37" height="37" fill="#D9D9D9"/>
</mask>
<g mask="url(#mask0_35_360)">
<path d="M17.8419 31.9874V19.7519C16.2964 19.7519 14.815 19.4594 13.3977 18.8743C11.9806 18.2893 10.7285 17.4532 9.64139 16.366C8.55452 15.2789 7.72497 14.0239 7.15276 12.6009C6.58054 11.1779 6.29443 9.6946 6.29443 8.15088V5.83838H8.60693C10.1237 5.83838 11.5922 6.13387 13.0126 6.72484C14.4333 7.31555 15.6852 8.15358 16.7685 9.23891C17.5751 10.0455 18.2367 10.9463 18.7534 11.9415C19.2704 12.9366 19.6405 13.9935 19.8638 15.1123C20.0416 14.8039 20.2397 14.5118 20.4581 14.2358C20.6765 13.9601 20.9202 13.6879 21.1892 13.4191C22.2748 12.3338 23.5294 11.4958 24.9528 10.9051C26.3763 10.3141 27.8602 10.0186 29.4044 10.0186H31.7169V12.3311C31.7169 13.8756 31.4213 15.3597 30.8301 16.7834C30.2388 18.2072 29.4003 19.4621 28.3144 20.5482C27.2286 21.634 25.9836 22.4631 24.5794 23.0353C23.1749 23.6075 21.6999 23.8936 20.1544 23.8936V31.9874H17.8419ZM17.8569 17.4009C17.8569 16.1675 17.6193 14.992 17.1439 13.8743C16.6686 12.7566 15.9941 11.7609 15.1205 10.8873C14.2469 10.0137 13.2512 9.33925 12.1335 8.8639C11.0158 8.38855 9.84027 8.15088 8.60693 8.15088C8.60693 9.38421 8.83818 10.5662 9.30068 11.6967C9.76318 12.8273 10.4312 13.8294 11.3049 14.703C12.1785 15.5766 13.1805 16.2446 14.3111 16.7071C15.4417 17.1696 16.6236 17.4009 17.8569 17.4009ZM20.1544 21.5811C21.3877 21.5811 22.5633 21.3499 23.681 20.8874C24.7987 20.4249 25.7943 19.7568 26.6679 18.8832C27.5416 18.0096 28.216 17.0075 28.6914 15.8769C29.1667 14.7464 29.4044 13.5644 29.4044 12.3311C28.1711 12.3311 26.9891 12.5688 25.8586 13.0441C24.728 13.5195 23.7259 14.194 22.8523 15.0676C21.9787 15.9412 21.3107 16.9368 20.8482 18.0545C20.3857 19.1723 20.1544 20.3478 20.1544 21.5811Z" fill="white"/>
</g>
</g>
<defs>
<clipPath id="clip0_35_360">
<rect width="37" height="37" fill="white" transform="translate(0.5)"/>
</clipPath>
</defs>
</svg>
