<svg width="39" height="38" viewBox="0 0 39 38" fill="none" xmlns="http://www.w3.org/2000/svg">
<mask id="mask0_35_327" style="mask-type:alpha" maskUnits="userSpaceOnUse" x="0" y="0" width="39" height="38">
<rect x="0.5" width="37.5532" height="37.5532" fill="white"/>
</mask>
<g mask="url(#mask0_35_327)">
<path d="M19.2766 33.762C18.4862 33.762 17.8046 33.4882 17.2319 32.9405C16.6593 32.3929 16.3479 31.7238 16.2978 30.9334H22.2555C22.2054 31.7238 21.894 32.3929 21.3213 32.9405C20.7486 33.4882 20.0671 33.762 19.2766 33.762ZM13.4089 28.7666V26.4195H25.1443V28.7666H13.4089ZM13.6495 24.2532C12.0107 23.234 10.7135 21.9025 9.75767 20.2585C8.80163 18.6147 8.32361 16.8169 8.32361 14.8649C8.32361 11.8158 9.38683 9.22799 11.5133 7.10154C13.6397 4.97509 16.2275 3.91187 19.2766 3.91187C22.3257 3.91187 24.9135 4.97509 27.04 7.10154C29.1664 9.22799 30.2297 11.8158 30.2297 14.8649C30.2297 16.8169 29.7516 18.6147 28.7956 20.2585C27.8398 21.9025 26.5425 23.234 24.9037 24.2532H13.6495ZM14.3478 21.9061H24.2055C25.379 21.0716 26.2853 20.0415 26.9242 18.8158C27.5631 17.5901 27.8826 16.2731 27.8826 14.8649C27.8826 12.4657 27.0481 10.4315 25.379 8.76249C23.71 7.09346 21.6759 6.25894 19.2766 6.25894C16.8774 6.25894 14.8433 7.09346 13.1742 8.76249C11.5052 10.4315 10.6707 12.4657 10.6707 14.8649C10.6707 16.2731 10.9901 17.5901 11.6291 18.8158C12.268 20.0415 13.1742 21.0716 14.3478 21.9061Z" fill="white"/>
</g>
</svg>
