<svg width="39" height="38" viewBox="0 0 39 38" fill="none" xmlns="http://www.w3.org/2000/svg">
<mask id="mask0_35_335" style="mask-type:alpha" maskUnits="userSpaceOnUse" x="0" y="0" width="39" height="38">
<rect x="0.5" width="37.8901" height="37.8901" fill="white"/>
</mask>
<g mask="url(#mask0_35_335)">
<path d="M29.8289 13.8384C29.1605 14.5041 28.3932 15.0096 27.527 15.3548C26.6611 15.6998 25.7878 15.8723 24.9071 15.8723C24.0267 15.8723 23.1619 15.7048 22.3128 15.3698C21.464 15.0349 20.7044 14.5244 20.0343 13.8384L17.0741 10.8783C16.642 10.4431 16.1522 10.1167 15.6047 9.89905C15.0571 9.68144 14.4952 9.57264 13.919 9.57264C13.3427 9.57264 12.7809 9.68144 12.2336 9.89905C11.6866 10.1167 11.1972 10.4431 10.7654 10.8783L8.07834 13.5499L6.39026 11.8618L9.06191 9.1748C9.73446 8.50488 10.494 8.00244 11.3404 7.66748C12.1872 7.33252 13.0463 7.16504 13.9178 7.16504C14.7895 7.16504 15.6426 7.33252 16.4769 7.66748C17.3116 8.00244 18.0653 8.50488 18.7381 9.1748L21.6983 12.135C22.1582 12.5978 22.6613 12.9378 23.2076 13.1548C23.7538 13.3717 24.3203 13.4801 24.9071 13.4801C25.4941 13.4801 26.0619 13.3713 26.6106 13.1537C27.1592 12.9361 27.6641 12.5965 28.1254 12.135L30.8124 9.46331L32.5005 11.1514L29.8289 13.8384ZM29.8289 21.2767C29.1582 21.9467 28.3944 22.4491 27.5377 22.7841C26.6807 23.119 25.812 23.2865 24.9316 23.2865C24.0511 23.2865 23.1824 23.119 22.3254 22.7841C21.4687 22.4491 20.705 21.9467 20.0343 21.2767L17.0741 18.3166C16.642 17.8814 16.1522 17.555 15.6047 17.3374C15.0571 17.1198 14.4952 17.011 13.919 17.011C13.3427 17.011 12.7809 17.1198 12.2336 17.3374C11.6866 17.555 11.1972 17.8814 10.7654 18.3166L8.07834 20.9882L6.39026 19.3396L9.06191 16.6131C9.73446 15.9432 10.494 15.4407 11.3404 15.1058C12.1872 14.7708 13.0463 14.6033 13.9178 14.6033C14.7895 14.6033 15.6426 14.7708 16.4769 15.1058C17.3116 15.4407 18.0653 15.9432 18.7381 16.6131L21.6983 19.5733C22.1551 20.0361 22.6549 20.3761 23.1977 20.5931C23.7403 20.81 24.3051 20.9184 24.8921 20.9184C25.4791 20.9184 26.0495 20.8096 26.6031 20.592C27.1567 20.3744 27.6641 20.0348 28.1254 19.5733L30.8124 16.9016L32.5005 18.5897L29.8289 21.2767ZM29.7894 28.7151C29.1192 29.385 28.3621 29.8874 27.518 30.2224C26.6741 30.5573 25.812 30.7248 24.9316 30.7248C24.0511 30.7248 23.1823 30.5548 22.325 30.2149C21.468 29.8746 20.7044 29.3696 20.0343 28.6997L17.0346 25.7549C16.6026 25.3197 16.1128 24.9933 15.5652 24.7757C15.0176 24.5581 14.4557 24.4493 13.8795 24.4493C13.3032 24.4493 12.7415 24.5581 12.1942 24.7757C11.6471 24.9933 11.1577 25.3197 10.7259 25.7549L8.03887 28.4265L6.39026 26.7779L9.06191 24.0514C9.73262 23.3815 10.49 22.8791 11.3341 22.5441C12.1785 22.2091 13.0354 22.0417 13.9047 22.0417C14.7788 22.0417 15.6343 22.2091 16.471 22.5441C17.308 22.8791 18.0637 23.3815 18.7381 24.0514L21.6983 27.0116C22.1595 27.4731 22.6645 27.8127 23.2131 28.0303C23.7617 28.2479 24.3295 28.3567 24.9166 28.3567C25.5033 28.3567 26.0698 28.2483 26.6161 28.0315C27.1623 27.8144 27.6654 27.4744 28.1254 27.0116L30.8124 24.3399L32.461 26.028L29.7894 28.7151Z" fill="white"/>
</g>
</svg>
